<svg xmlns="http://www.w3.org/2000/svg" xmlns:xlink="http://www.w3.org/1999/xlink" width="38" height="38" viewBox="0 0 38 38"><defs><style>.a{fill:#fff;stroke:#707070;}.b{clip-path:url(#a);}.c{fill:#ff9400;fill-rule:evenodd;}</style><clipPath id="a"><rect class="a" width="38" height="38" transform="translate(858 8177)"/></clipPath></defs><g class="b" transform="translate(-858 -8177)"><path class="c" d="M186.4,231.847a21.7,21.7,0,0,1-14.567-20.513V199.819l14.567-5.972,14.567,5.972v11.5L186.4,205.346l-3.927,1.61v.614l11.372,4.662A14.627,14.627,0,0,1,186.4,224.1a14.62,14.62,0,0,1-7.252-10.232l4.168,1.709a11.085,11.085,0,0,0,3.084,4.23,11.1,11.1,0,0,0,3.484-5.37l-9.922-4.067h0l-1.036-.425v-5.372l7.473-3.064,11.02,4.518V202.2L186.4,197.68l-11.02,4.517v9.136a18.164,18.164,0,0,0,11.02,16.714,18.155,18.155,0,0,0,10.874-14.411l3.38,1.386A21.706,21.706,0,0,1,186.4,231.847" transform="translate(690.568 7983.153)"/></g></svg>